<svg xmlns="http://www.w3.org/2000/svg" xmlns:xlink="http://www.w3.org/1999/xlink" viewBox="0 0 225.86 223.55"><defs><style>.cls-1{fill:url(#Dégradé_sans_nom);}</style><linearGradient id="Dégradé_sans_nom" x1="-851.55" y1="-828.12" x2="728.49" y2="292.28" gradientTransform="matrix(0.72, 0, 0, -0.72, 156.5, -79.94)" gradientUnits="userSpaceOnUse"><stop offset="0.41" stop-color="#49a8d1"/><stop offset="0.61" stop-color="#b81676"/></linearGradient></defs><g id="Calque_2" data-name="Calque 2"><g id="final_svg" data-name="final svg"><g id="color_index_g" data-name="color index g"><path class="cls-1" d="M225.86,0h-1L162.79,106.43,222.22,0h-1.5L158.6,106.43,218,0h-1.5L154.41,106.43,213.84,0h-1.5L150.22,106.43,209.65,0h-1.5L146,106.43,205.46,0H204L141.83,106.43,201.27,0h-1.5L137.64,106.43,197.08,0h-1.5L133.75,105.92h0L192.89,0h-1.5L131.66,102.32l0-.09L188.7,0h-1.5L129.57,98.73l-.1-.18L184.51,0H183L127.48,95.13l-.15-.25L180.32,0h-1.5L125.39,91.53l-.19-.33L176.13,0h-1.51L123.3,87.93l-.24-.41L171.94,0h-1.51L121.21,84.34l-.29-.49L167.75,0h-1.51L119.12,80.74l-.34-.57L163.55,0h-1.5L117,77.14l-.37-.65L159.36,0h-1.5L114.93,73.55l-.42-.73L155.17,0h-1.5L112.93,70.09,72.18,0h-1.5l40.66,72.82-.42.73L68,0h-1.5l42.72,76.49-.38.65L63.8,0H62.3l44.77,80.17-.33.57L59.61,0h-1.5l46.82,83.85-.28.49L55.42,0h-1.5L102.8,87.52l-.24.41L51.23,0h-1.5l50.93,91.2-.19.33L47,0h-1.5l53,94.88-.14.25L42.85,0h-1.5l55,98.55-.1.18L38.66,0h-1.5L94.25,102.23l-.06.09L34.47,0H33L92.11,105.91h0L30.28,0H28.77L88.21,106.43,26.09,0H24.58L84,106.43,21.9,0H20.39L79.83,106.43,17.7,0H16.2L75.64,106.43,13.51,0H12L71.45,106.43,9.32,0H7.82L67.26,106.43,5.13,0H3.63L63.07,106.43.94,0H0L60.46,111.78,0,223.55H.94L63.07,117.12,3.63,223.55h1.5L67.26,117.12,7.82,223.55h1.5L71.45,117.12,12,223.55h1.5L75.64,117.12,16.2,223.55h1.5L79.83,117.12,20.39,223.55H21.9L84,117.12,24.58,223.55h1.51L88.21,117.12,28.78,223.55h1.5L92.1,117.63h0L33,223.55h1.5L94.19,121.23l.06.09L37.16,223.55h1.5l57.62-98.72.1.17-55,98.55h1.5l55.53-95.13.14.25-53,94.88H47L100.47,132l.19.33-50.93,91.2h1.5l51.33-87.93.24.41L53.92,223.55h1.5l49.23-84.34.28.49L58.11,223.55h1.5l47.13-80.74.33.57L62.3,223.55h1.5l45-77.14.38.65L66.49,223.55H68L110.92,150l.43.72L70.68,223.55h1.5l40.75-70.09,40.74,70.09h1.5l-40.66-72.82.42-.72,42.93,73.54h1.5l-42.71-76.49.38-.65,45,77.14h1.51l-44.77-80.17.33-.57,47.12,80.74h1.51L120.92,139.7l.29-.49,49.22,84.34h1.51L123.06,136l.24-.41,51.33,87.93h1.5l-50.93-91.2.19-.33,53.43,91.53h1.5l-53-94.88.15-.25L183,223.55h1.5l-55-98.55.1-.17,57.63,98.72h1.5L131.61,121.32l0-.09,59.73,102.32h1.5L133.75,117.64h0l61.83,105.92h1.5L137.64,117.12l62.13,106.43h1.5L141.83,117.12,204,223.55h1.5L146,117.12l62.13,106.43h1.5L150.22,117.12l62.12,106.43h1.5L154.41,117.12l62.12,106.43H218L158.6,117.12l62.12,106.43h1.5L162.79,117.12l62.12,106.43h1L165.39,111.78ZM100.36,117.85v0h0Zm2.09,3.59.06.1-.06.1,0-.1Zm2.1-3.59v0h0Zm4.19,0v0h0Zm4.19,0v0h0Zm4.19,0v0h0Zm4.19,0v0h0Zm-2,3.69-.06.1,0-.1,0-.1Zm-8.44,7.08.15.26-.15.26-.15-.26Zm-2.09-3.23-.11-.18.11-.18.1.18Zm4.08-.18.11-.18.1.18-.1.18Zm.11,7,.19.33-.19.35-.2-.35Zm1.94-3.33.15-.26.15.26-.15.26Zm2.15-3.67.1-.18.1.18-.1.18Zm-1.94-3.67-.06.1,0-.1,0-.1Zm-4.19,0-.06.1,0-.1,0-.1Zm-4.19,0-.06.1,0-.1,0-.1ZM104.55,125l.1.18-.1.18-.11-.18Zm2.09,3.59.15.26-.15.26-.15-.26Zm2.1,3.59.19.33-.19.35-.2-.35Zm2.09,3.59.24.41-.24.44-.24-.44Zm2.1,3.59.29.49-.29.52-.29-.52Zm1.85-3.18.24-.41.24.41-.24.44Zm2.14-3.67.2-.33.19.33-.19.35Zm2.14-3.66.15-.26.15.26-.15.26Zm2.15-3.67.1-.18.1.18-.1.18Zm2.14-3.67.05-.1.06.1-.06.1Zm2.14-3.67v0h0Zm0-12.17v0h0Zm-2.1-3.59-.05-.1.05-.1.06.1Zm-2.09,3.59v0h0Zm-4.19,0v0h0Zm-4.19,0v0h0Zm-4.19,0v0h0Zm-4.19,0v0h0Zm2-3.69.06-.1.06.1-.06.1ZM115,94.93l-.15-.25.15-.27.15.27Zm2.1,3.23.1.19-.1.17-.1-.17Zm-4.09.19-.1.17-.11-.17.11-.19Zm-.1-7-.2-.33.2-.35.19.35Zm-2,3.34-.15.25-.15-.25.15-.27Zm-2.14,3.67-.1.17-.11-.17.11-.19Zm1.94,3.66,0-.1.06.1-.06.1Zm4.19,0,0-.1.06.1-.06.1Zm4.19,0,0-.1.06.1-.06.1Zm2.15-3.49-.1-.17.1-.19.1.19Zm-2.1-3.59-.15-.25.15-.27.15.27Zm-2.09-3.59-.2-.33.2-.35.19.35ZM115,87.75l-.24-.41.24-.43.24.43Zm-2.09-3.59-.29-.49.29-.52.29.52Zm-1.86,3.18-.24.41-.24-.41.24-.43ZM108.93,91l-.19.33-.2-.33.2-.35Zm-2.14,3.67-.15.25-.15-.25.15-.27Zm-2.14,3.67-.1.17-.11-.17.11-.19ZM102.51,102l-.06.1,0-.1,0-.1Zm-2.15,3.67v0h0Zm29.34,0v0h0Zm-2-3.67-.05.1-.06-.1.06-.1Zm-2.05-3.66-.1.17-.1-.17.1-.19Zm-2-3.67-.15.25-.14-.25.14-.27Zm-2-3.67-.19.33-.2-.33.2-.35Zm-2-3.67-.24.41-.24-.41.24-.43Zm-2-3.67-.29.49-.29-.49.29-.52Zm-2-3.67-.34.57-.33-.57.33-.6Zm-2.43-4.35.38.68-.38.65-.38-.65Zm-2.1,3.75.34.6-.34.57L110.5,80Zm-2.09,3.75.28.52-.28.49-.29-.49Zm-2.1,3.76.24.43-.24.41-.24-.41Zm-2.09,3.75.19.35-.19.33-.2-.33Zm-2.1,3.75.15.27-.15.25-.15-.25Zm-2.09,3.75.1.19-.1.17-.11-.17Zm-2.1,3.75.06.1-.06.1-.06-.1Zm-2.1,3.76h0v0Zm0,12.2v0h0Zm2,3.67.06-.1.06.1-.06.1Zm2,3.67.11-.18.1.18-.1.18Zm2,3.67.15-.26.15.26-.15.26Zm2,3.66.2-.33.19.33-.19.35Zm2.05,3.67.24-.41.24.41-.24.44Zm2,3.67.29-.49.28.49-.28.52Zm2,3.67.33-.57.34.57-.34.6Zm2.43,4.35-.38-.68.38-.65.38.65Zm2.09-3.75-.33-.6L115,143l.34.57Zm2.1-3.75-.29-.52.29-.49.29.49Zm2.09-3.75-.24-.44.24-.41.24.41Zm2.1-3.76-.2-.35.2-.33.19.33Zm2.09-3.75-.14-.26.14-.26.15.26Zm2.1-3.75-.1-.18.1-.18.1.18Zm2.09-3.75,0-.1,0-.1.06.1Zm2.1-3.76h0v0Z"/></g></g></g></svg>